<?xml version="1.0" encoding="utf-8"?>
<!-- Generator: Adobe Illustrator 22.1.0, SVG Export Plug-In . SVG Version: 6.00 Build 0)  -->
<svg version="1.1" id="Layer_1" xmlns="http://www.w3.org/2000/svg" xmlns:xlink="http://www.w3.org/1999/xlink" x="0px" y="0px"
	 viewBox="0 0 360 360" style="enable-background:new 0 0 360 360;" xml:space="preserve">
<style type="text/css">
	.st0{clip-path:url(#SVGID_2_);}
	.st1{fill:#3B445E;}
	.st2{fill:url(#Shape_42_);}
	.st3{fill:#F8A278;}
	.st4{fill:#E05151;}
	.st5{fill:#DB535F;}
	.st6{fill:#F95555;}
	.st7{fill:#F6686F;}
	.st8{fill:url(#Shape_43_);}
	.st9{fill:url(#Shape_44_);}
	.st10{fill:#201D1E;}
	.st11{fill:url(#Oval_12_);}
	.st12{fill:url(#Shape_45_);}
	.st13{fill:#5F5FB0;}
	.st14{fill:url(#Rectangle-path_5_);}
	.st15{fill:#F7A177;}
	.st16{fill:#CB9B86;}
	.st17{fill:#D29879;}
	.st18{fill:#F59D6F;}
	.st19{fill:#F39567;}
	.st20{fill:url(#Shape_46_);}
	.st21{opacity:0.42;fill:url(#Shape_47_);enable-background:new    ;}
	.st22{fill:url(#Shape_48_);}
	.st23{fill:#FFFFFF;}
	.st24{fill:#F18F62;}
	.st25{opacity:0.3;fill:#FFFFFF;enable-background:new    ;}
	.st26{fill:#4A5A7C;}
	.st27{fill:url(#Shape_49_);}
	.st28{fill:url(#Rectangle-path_6_);}
	.st29{fill:url(#Shape_50_);}
	.st30{fill:url(#Shape_51_);}
	.st31{fill:url(#Oval_13_);}
	.st32{fill:url(#Shape_52_);}
	.st33{fill:none;stroke:#E2E2E2;stroke-width:5;stroke-linecap:round;stroke-dasharray:12,10;}
	.st34{fill:none;stroke:url(#Combined-Shape_2_);stroke-width:3.6;stroke-linecap:round;}
	.st35{fill:url(#Oval-6_3_);}
	.st36{fill:url(#Oval-6_5_);}
	.st37{fill:url(#Oval-6_6_);}
	.st38{fill:#33DAB9;}
	.st39{fill:#95BCE2;}
	.st40{fill:#FFDF95;}
	.st41{fill:#56B087;}
	.st42{fill:#5C87C1;}
	.st43{fill:#FFBC5C;}
	.st44{fill:#FF8B79;}
	.st45{fill:#4C4C4C;}
	.st46{font-family:'OpenSans-Bold';}
	.st47{font-size:16px;}
	.st48{fill:none;stroke:#4C4C4C;stroke-miterlimit:10;}
</style>
<title>360 learning</title>
<desc>Created with Sketch.</desc>
<g id="Page-3">
	<g id="Group-78">
		<g id="Group-77">
			<g id="Group-20" transform="translate(62.526316, 62.526316)">
				<g id="Group-19" transform="translate(0.133367, 0.133367)">
					<g>
						<defs>
							<circle id="SVGID_1_" cx="116.3" cy="116.7" r="117"/>
						</defs>
						<clipPath id="SVGID_2_">
							<use xlink:href="#SVGID_1_"  style="overflow:visible;"/>
						</clipPath>
						<g class="st0">
							<g id="feature-images-39">
								<g transform="translate(27.000000, 29.000000)">
									<path id="Shape" class="st1" d="M29.4,108.6l-20.1-4.4c-0.5-0.1-1.1,0-1.5,0.4s-0.5,0.9-0.4,1.5l7.4,30.1
										c0.1,0.5,0.5,1,1.1,1.1l19.8,6c0.5,0.2,1.1,0,1.5-0.4s0.6-0.9,0.5-1.5l-7.1-31.8C30.5,109.2,30,108.8,29.4,108.6z"/>
									<polygon id="Shape_1_" class="st1" points="35.3,145.3 37.4,143.1 29.3,109.5 7.7,104.8 5.7,107.1 									"/>

										<linearGradient id="Shape_42_" gradientUnits="userSpaceOnUse" x1="-2418.8989" y1="132.4355" x2="-2418.8989" y2="133.4352" gradientTransform="matrix(89.6738 0 0 106.9335 217002.0469 -14059.7939)">
										<stop  offset="0" style="stop-color:#6060B1"/>
										<stop  offset="1" style="stop-color:#5959AA"/>
									</linearGradient>
									<path id="Shape_2_" class="st2" d="M79.7,102h20.9c9.1,0,17.9,3.6,24.3,10s10.1,15.2,10.1,24.3v62.2
										c0,5.7-4.7,10.4-10.4,10.4H55.8c-5.7,0-10.4-4.6-10.4-10.4v-62.2c0-9.1,3.6-17.8,10.1-24.3S70.6,102,79.7,102z"/>
									<path id="Rectangle-path" class="st3" d="M4.6,116.8H12c2.5,0,4.5,2,4.5,4.5l0,0c0,2.5-2,4.5-4.5,4.5H4.6
										c-2.5,0-4.5-2-4.5-4.5l0,0C0.1,118.8,2.1,116.8,4.6,116.8z"/>
									<path id="Shape_3_" class="st4" d="M147.4,184.4c-4.3,0-8.3-2.4-10.4-6.2c-9.5-17.2-28.3-39.4-28.5-39.6
										c-4.3-5-3.7-12.5,1.4-16.8s12.5-3.7,16.8,1.3c0.8,1,20.6,24.2,31.3,43.6c2,3.7,2,8.2-0.2,11.8S151.6,184.4,147.4,184.4z"/>
									<path id="Shape_4_" class="st5" d="M31.6,198c-4.2,0-8.1-2.2-10.2-5.8s-2.2-8.1-0.2-11.8c6.4-11.7,14-25.5,20-35.9
										c3.4-6,6.2-10.8,8.3-14.2c3.8-6.3,6.9-11.3,14-11.3c4.8,0,9.1,2.9,11,7.2c1.9,4.3,0.9,9.5-2.4,12.9
										c-3.3,4.9-17.4,29.6-29.9,52.6C40,195.7,36,198.1,31.6,198z M64.6,142.8c-0.4,0-0.8,0.1-1.2,0.1
										C63.8,142.9,64.3,142.8,64.6,142.8L64.6,142.8z"/>
									<path id="Shape_5_" class="st6" d="M68.3,117h44c10.6,0,19.2,8.6,19.2,19.2v59.4H49v-59.4c0-5.1,2-10,5.6-13.6
										C58.3,119,63.2,117,68.3,117z"/>
									<path id="Shape_6_" class="st6" d="M59.9,118.9c0,0,28.4-13,60.1-0.3l-37.5,29.8L59.9,118.9z"/>
									<ellipse id="Oval" class="st6" cx="90.3" cy="195.4" rx="41.2" ry="41.1"/>
									<path id="Shape_7_" class="st5" d="M131.5,136.2c0-7.6-4.5-14.5-11.5-17.6l0,0c-26.7-10.8-51.2-3.1-58.1-0.5
										c-0.5,0.2-0.9,0.3-1.4,0.5l-0.6,0.3c-6.6,3.2-10.9,9.9-10.9,17.3v59.4h0.1c0,22.7,18.4,41.1,41.2,41.1s41.2-18.4,41.2-41.1
										h0.1L131.5,136.2z"/>
									<path id="Shape_8_" class="st7" d="M120.7,136.2c0-7.9-3.5-14.6-8.5-17.6c-19.8-10.8-37.8-3.1-42.9-0.5
										c-0.3,0.2-0.7,0.3-1,0.5s-0.4,0.3-0.4,0.3c-4.7,3.1-8,9.7-8,17.3v59.4l0,0c0.1,22.6,13.7,41,30.4,41s30.3-18.3,30.4-41l0,0
										V136.2z"/>

										<linearGradient id="Shape_43_" gradientUnits="userSpaceOnUse" x1="-2388.0718" y1="139.3937" x2="-2388.0718" y2="138.4579" gradientTransform="matrix(38.5459 0 0 71.9578 92073.4844 -9834.5703)">
										<stop  offset="0" style="stop-color:#F4905E"/>
										<stop  offset="1" style="stop-color:#D67546"/>
									</linearGradient>
									<path id="Shape_9_" class="st8" d="M30.4,198.2c-5.2,0-9.9-3.4-11.4-8.4L4.5,142.2c-1.5-4.1-0.5-8.7,2.4-12
										c2.9-3.2,7.4-4.6,11.7-3.6s7.6,4.4,8.7,8.6l14.6,47.6c1.1,3.6,0.4,7.5-1.8,10.6C37.7,196.5,34.2,198.2,30.4,198.2
										L30.4,198.2z"/>

										<linearGradient id="Shape_44_" gradientUnits="userSpaceOnUse" x1="-2387.866" y1="139.474" x2="-2387.866" y2="138.9545" gradientTransform="matrix(38.3976 0 0 70.8409 91711.4062 -9699.29)">
										<stop  offset="0" style="stop-color:#EFAB7B"/>
										<stop  offset="1" style="stop-color:#F48D5B"/>
									</linearGradient>
									<path id="Shape_10_" class="st9" d="M36.5,165.4c-1.2,0.4-2.5,0.6-3.7,0.6c-5.2,0-9.9-3.4-11.4-8.4l-9.3-30.2
										c-6.2,2-9.6,8.6-7.7,14.8L19,189.8c1.2,4.1,4.6,7.2,8.7,8.1s8.5-0.4,11.4-3.5c2.9-3.1,3.9-7.5,2.7-11.6L36.5,165.4z"/>
									<path id="Shape_11_" class="st10" d="M27.4,110.9l-20.1-4.4c-0.5-0.1-1.1,0.1-1.5,0.4c-0.4,0.4-0.5,0.9-0.4,1.5l7.4,30.1
										c0.1,0.5,0.5,1,1.1,1.1l19.8,6c0.5,0.2,1.1,0,1.5-0.3s0.6-1,0.5-1.5L28.6,112C28.4,111.5,28,111,27.4,110.9z"/>

										<linearGradient id="Oval_12_" gradientUnits="userSpaceOnUse" x1="-2370.6958" y1="165.8321" x2="-2370.1741" y2="166.1503" gradientTransform="matrix(29.0156 0 0 28.9956 68790.9375 -4681.9175)">
										<stop  offset="0" style="stop-color:#EFAB7B"/>
										<stop  offset="1" style="stop-color:#F48D5B"/>
									</linearGradient>
									<ellipse id="Oval_1_" class="st11" cx="14.8" cy="133.2" rx="14.5" ry="14.5"/>

										<linearGradient id="Shape_45_" gradientUnits="userSpaceOnUse" x1="-2347.5586" y1="166.5976" x2="-2347.5586" y2="165.6618" gradientTransform="matrix(22.0342 0 0 28.9543 51744.8594 -4676.96)">
										<stop  offset="0" style="stop-color:#F4905E"/>
										<stop  offset="1" style="stop-color:#D67546"/>
									</linearGradient>
									<path id="Shape_12_" class="st12" d="M15.7,118.8c5.7,3.5,8.3,10.4,6.3,16.7c-2,6.4-8.1,10.5-14.7,10.1
										c5.1,3.1,11.7,2.7,16.4-1c4.8-3.7,6.7-9.9,4.9-15.7C26.9,123.2,21.8,119.1,15.7,118.8z"/>
									<path id="Shape_13_" class="st13" d="M63.2,174.6c0,0-1.4,14.7-17,26.9c0,0,9.6-12.2,12.5-27.5L63.2,174.6z"/>

										<linearGradient id="Rectangle-path_5_" gradientUnits="userSpaceOnUse" x1="-2601.8398" y1="101.5757" x2="-2601.8398" y2="100.5757" gradientTransform="matrix(-13.0496 0 0 -67.4713 -33891.1211 6964.5645)">
										<stop  offset="0" style="stop-color:#9693E1"/>
										<stop  offset="1" style="stop-color:#6F6CC4"/>
									</linearGradient>
									<path id="Rectangle-path_1_" class="st14" d="M63.9,178.6h-4.1c-2.5,0-4.5-2-4.5-4.5v-58.6c0-2.5,2-4.5,4.5-4.5h4.1
										c2.5,0,4.5,2,4.5,4.5v58.6C68.3,176.6,66.3,178.6,63.9,178.6z"/>
									<path id="Shape_14_" class="st13" d="M114.3,174.6c0,0,1.4,14.7,17,26.9c0,0-9.6-12.2-12.5-27.5L114.3,174.6z"/>
									<path id="Shape_15_" class="st15" d="M90.1,123.6c-5.6,0-10.2-4.6-10.2-10.2V87.3c0-5.6,4.6-10.2,10.2-10.2
										s10.2,4.6,10.2,10.2v26.1C100.3,119,95.7,123.6,90.1,123.6z"/>
									<path id="Shape_16_" class="st16" d="M90.7,99.2c0.9,0,1.6,1.1,1.6,2.4s-0.7,2.4-1.6,2.4C91.7,102.6,91.7,100.7,90.7,99.2z
										"/>
									<path id="Shape_17_" class="st10" d="M63.3,40.4H115c7.2,0,13,5.8,13,13v8.8c0,10.1-4,19.8-11.2,26.9s-16.9,11.2-27,11.2
										h-1.4c-21.1,0-38.1-17.1-38.1-38.1v-8.8C50.3,46.2,56.2,40.4,63.3,40.4z"/>
									<ellipse id="Oval_2_" class="st17" cx="53.7" cy="67.7" rx="8.7" ry="8.4"/>
									<ellipse id="Oval_3_" class="st18" cx="53.7" cy="67.7" rx="8.7" ry="8.4"/>
									<ellipse id="Oval_4_" class="st19" cx="124.8" cy="67.7" rx="8.7" ry="8.4"/>

										<linearGradient id="Shape_46_" gradientUnits="userSpaceOnUse" x1="-2412.8157" y1="139.6711" x2="-2412.8157" y2="138.6932" gradientTransform="matrix(71.0695 0 0 70.9242 171567.0625 -9802.2568)">
										<stop  offset="0" style="stop-color:#FAB18E"/>
										<stop  offset="1" style="stop-color:#F7A177"/>
									</linearGradient>
									<path id="Shape_18_" class="st20" d="M67.6,34.4h43.7c7.6,0,13.7,6.1,13.7,13.7v22.4c0,19.3-15.6,34.9-34.9,34.9h-1.3
										c-19.3,0-34.9-15.6-34.9-34.9V48.1C53.9,40.6,60.1,34.4,67.6,34.4z"/>

										<linearGradient id="Shape_47_" gradientUnits="userSpaceOnUse" x1="-2349.8757" y1="139.5639" x2="-2349.8757" y2="139.977" gradientTransform="matrix(22.5872 0 0 68.4012 53142.3125 -9499.1055)">
										<stop  offset="0" style="stop-color:#BB5B1A"/>
										<stop  offset="1" style="stop-color:#E46F41"/>
									</linearGradient>
									<path id="Shape_19_" class="st21" d="M65.7,73.8V34.6c-6.7,1-11.8,6.6-11.8,13.3v23.2c0,14.5,9.4,26.9,22.6,31.9
										C65,98.1,65.7,73.8,65.7,73.8z"/>

										<linearGradient id="Shape_48_" gradientUnits="userSpaceOnUse" x1="-2381.2773" y1="138.857" x2="-2381.3552" y2="139.5334" gradientTransform="matrix(34.2809 0 0 70.8846 81742.5625 -9797.5273)">
										<stop  offset="0" style="stop-color:#DD784B"/>
										<stop  offset="1" style="stop-color:#F49B6C"/>
									</linearGradient>
									<path id="Shape_20_" class="st22" d="M90.7,105.3c18-1.3,33.3-11.8,34.3-34.2V47.9c0-7.4-6.2-13.4-14-13.4l3.4,39.3
										C114.4,73.8,115.1,103.6,90.7,105.3z"/>
									<ellipse id="Oval_5_" class="st10" cx="74.4" cy="62.9" rx="2.1" ry="5.3"/>
									<ellipse id="Oval_6_" class="st23" cx="74.9" cy="59.5" rx="1" ry="1"/>
									<ellipse id="Oval_7_" class="st10" cx="104.4" cy="62.9" rx="2.1" ry="5.3"/>
									<ellipse id="Oval_8_" class="st23" cx="104.9" cy="59.5" rx="1" ry="1"/>
									<path id="Shape_21_" class="st24" d="M70.1,70.3c0-1.5,2-2.7,4.5-2.7s4.5,1.2,4.5,2.7H70.1z"/>
									<path id="Shape_22_" class="st24" d="M99.8,70.3c0-1.5,2.1-2.7,4.6-2.7c2.6,0,4.6,1.2,4.6,2.7H99.8z"/>
									<path id="Shape_23_" class="st16" d="M87.7,100.3c0-0.8,1.1-1.5,2.6-1.5c1.4,0,2.5,0.7,2.5,1.5
										C91.3,99.3,89.3,99.3,87.7,100.3L87.7,100.3z"/>
									<path id="Shape_24_" class="st10" d="M123.4,73.3c-1.1,0-2-0.9-2.1-2v-24c0-1.1,0.9-2.1,2.1-2.1s2.1,0.9,2.1,2.1v24.1
										C125.4,72.4,124.5,73.3,123.4,73.3z"/>
									<path id="Rectangle-path_2_" class="st10" d="M69.5,48.7h9.7c0.6,0,1,0.4,1,1l0,0c0,0.6-0.4,1-1,1h-9.7c-0.6,0-1-0.4-1-1
										l0,0C68.5,49.2,69,48.7,69.5,48.7z"/>
									<path id="Rectangle-path_3_" class="st10" d="M99.6,48.7h9.7c0.6,0,1,0.4,1,1l0,0c0,0.6-0.4,1-1,1h-9.7c-0.6,0-1-0.4-1-1
										l0,0C98.6,49.2,99,48.7,99.6,48.7z"/>
									<ellipse id="Oval_9_" class="st25" cx="105.6" cy="65.4" rx="13.7" ry="13.1"/>
									<ellipse id="Oval_10_" class="st25" cx="72.8" cy="65.4" rx="13.7" ry="13.1"/>
									<path id="Shape_25_" class="st10" d="M105.6,79.5c-8.1,0-14.7-6.3-14.7-14.1s6.6-14.1,14.7-14.1s14.7,6.3,14.7,14.1
										S113.7,79.5,105.6,79.5z M105.6,53.3c-7,0-12.6,5.5-12.6,12.2s5.7,12.2,12.6,12.2s12.6-5.4,12.6-12.2
										S112.5,53.3,105.6,53.3z"/>
									<path id="Shape_26_" class="st10" d="M72.8,79.5c-8.1,0-14.7-6.3-14.7-14.1s6.6-14.1,14.7-14.1s14.7,6.3,14.7,14.1
										S80.9,79.5,72.8,79.5z M72.8,53.3c-7,0-12.6,5.5-12.6,12.2s5.7,12.2,12.6,12.2s12.6-5.4,12.6-12.2S79.8,53.3,72.8,53.3z"/>
									<path id="Shape_27_" class="st10" d="M87.3,65.7l-1.7-0.4c0.4-1.6,1.9-2.7,3.5-2.7s3.1,1.1,3.5,2.7L91,65.7
										c-0.2-0.8-1-1.4-1.8-1.4C88.3,64.3,87.5,64.9,87.3,65.7z"/>
									<path id="Shape_28_" class="st10" d="M127.8,50.7c0,0,7.7-9.8,0.2-19.1c0,0-4.1-2.9-8.8-1c0,0,3.7-15.9-10.2-23.3
										S83.1,1.5,77.2,0c0,0-5.8,9.8-2.3,16.2c0,0-15-2.2-21.5-0.7c0,0-2.6,3.4,0,9.9c0,0-5.8,4.4-3,29.9c0,0,13.7-6.5,17.6-20.8
										c0,0,7.4,4.8,23.6,4.8c0,0-4-2-5-4.8c0,0,15.6,8.2,26.3,3.8c0,0-1.8,9.6,8.6,14s2.1,0,2.1,0L127.8,50.7z"/>
									<path id="Shape_29_" class="st1" d="M89.5,18.5c0,0,5.8,5,12.9,6.3l-3.8-6.3c0,0,8,6.3,13.7,8.3s6.9,3.8,6.9,3.8
										s3.7-15.9-10.2-23.3S83.1,1.5,77.2,0C77.2,0,80,13.4,89.5,18.5z"/>
									<path id="Shape_30_" class="st1" d="M74.9,16.2c0,0,4.6,8.5,9.8,10c0,0-15.4,1.8-20.2-2.6l4-1.5c0,0-13.2,0.4-15.2-6.6
										C53.3,15.5,60.3,13.8,74.9,16.2z"/>
									<path id="Shape_31_" class="st10" d="M53.3,47.3c0-1.1,0.9-2,2.1-2c1.1,0,2,0.9,2.1,2v24.1c0,1.1-0.9,2-2.1,2
										c-1.1,0-2-0.9-2.1-2"/>
									<path id="Shape_32_" class="st1" d="M53.3,25.4c0,0,8.3,0.7,5.8,7s-6.2,12.9-6.5,16.3l-1.5-4.6v13.1c0,0-1.9-14.6-1.4-18.9
										S50,29.6,53.3,25.4z"/>
									<path id="Shape_33_" class="st26" d="M87.1,3.1c0,0,20.7,2.8,26.7,11.8l-3.5-0.8c0,0,8.4,7.1,7.6,12.4
										c0,0-9.4-8.2-12.3-13.8h2.5C108.1,12.8,102.6,6.8,87.1,3.1z"/>
									<path id="Shape_34_" class="st26" d="M74.4,17.5c0,0,1.3,2.6,2.2,3.2c0,0-6.2-0.1-8.6-1.3l2.5-0.3c0,0-10.9-0.9-14.5-2.8
										C55.8,16.2,63.5,15.6,74.4,17.5z"/>
									<path id="Shape_35_" class="st23" d="M78.3,82.2c-0.3,0-0.6,0.2-0.9,0.4c-0.2,0.2-0.3,0.6-0.3,0.9
										c0.6,6.6,5.9,11.8,12.3,11.8s11.6-5.1,12.3-11.6c0-0.4-0.1-0.7-0.3-1c-0.2-0.3-0.6-0.4-1-0.5
										C100.4,82.2,78.3,82.2,78.3,82.2z"/>

										<linearGradient id="Shape_49_" gradientUnits="userSpaceOnUse" x1="-2341.407" y1="245.8661" x2="-2340.6997" y2="246.4395" gradientTransform="matrix(20.6184 0 0 10.4792 48359 -2473.6023)">
										<stop  offset="0" style="stop-color:#B46528"/>
										<stop  offset="1" style="stop-color:#F49B6C"/>
									</linearGradient>
									<path id="Shape_36_" class="st27" d="M79.7,104.3c0,0,3.9,10.5,20.6,9.1l-0.1-10.3C100.3,103,88.6,106.6,79.7,104.3z"/>
									<path id="Shape_37_" class="st5" d="M157.8,166.8c-10.7-19.4-30.4-42.6-31.3-43.6c-4.3-5-14.6,0.5-13.6,1.7
										c0.8,1,20.6,24.2,31.3,43.6c2.7,4.8,1.7,10.8-2.4,14.5c4.7,2.5,10.4,1.6,14.1-2.1C159.6,177.1,160.4,171.4,157.8,166.8z"/>

										<linearGradient id="Rectangle-path_6_" gradientUnits="userSpaceOnUse" x1="-2282.4412" y1="139.6442" x2="-2282.4412" y2="140.6442" gradientTransform="matrix(13.0496 0 0 67.4713 29903.4941 -9310.877)">
										<stop  offset="0" style="stop-color:#9693E1"/>
										<stop  offset="1" style="stop-color:#6F6CC4"/>
									</linearGradient>
									<path id="Rectangle-path_4_" class="st28" d="M116.5,111.1h4.1c2.5,0,4.5,2,4.5,4.5v58.6c0,2.5-2,4.5-4.5,4.5h-4.1
										c-2.5,0-4.5-2-4.5-4.5v-58.6C112,113.1,114,111.1,116.5,111.1z"/>

										<linearGradient id="Shape_50_" gradientUnits="userSpaceOnUse" x1="-2404.9756" y1="152.8076" x2="-2404.9756" y2="153.808" gradientTransform="matrix(56.0768 0 0 40.308 134994.9688 -6014.6948)">
										<stop  offset="0" style="stop-color:#FAC397"/>
										<stop  offset="1" style="stop-color:#F3905E"/>
									</linearGradient>
									<path id="Shape_38_" class="st29" d="M147.8,185c-1.9,0-3.8-0.5-5.5-1.3c-10.1-5.2-32.2-16.5-32.4-16.6
										c-5.7-3.1-7.9-10.1-5-15.9s9.9-8.1,15.7-5.4c0.2,0.1,22.5,11.4,32.6,16.7c4.9,2.5,7.4,8.1,6.1,13.4
										C158,181.3,153.2,185,147.8,185L147.8,185z"/>

										<linearGradient id="Shape_51_" gradientUnits="userSpaceOnUse" x1="-2404.2419" y1="154.8046" x2="-2404.2419" y2="153.8689" gradientTransform="matrix(54.9915 0 0 39.0784 132343.7188 -5865.8057)">
										<stop  offset="0" style="stop-color:#F4905E"/>
										<stop  offset="1" style="stop-color:#D67546"/>
									</linearGradient>
									<path id="Shape_39_" class="st30" d="M152.8,180c-1.9,0-3.8-0.5-5.5-1.3c-10.1-5.2-32.2-16.5-32.4-16.6
										c-2.8-1.4-4.9-3.9-5.9-6.9s-0.7-6.3,0.7-9.1c0,0,0-0.1,0.1-0.1c-3.9,2.1-6.4,6.2-6.4,10.6c0,4.5,2.5,8.5,6.5,10.5
										c0.2,0.1,22.4,11.4,32.4,16.6c5.8,3,13,0.7,16-5.1C156.6,179.5,154.7,180,152.8,180z"/>

										<linearGradient id="Oval_13_" gradientUnits="userSpaceOnUse" x1="-2370.3169" y1="165.5655" x2="-2370.3169" y2="166.5656" gradientTransform="matrix(29.0156 0 0 28.9956 68891.3672 -4658.6704)">
										<stop  offset="0" style="stop-color:#FAC397"/>
										<stop  offset="1" style="stop-color:#F3905E"/>
									</linearGradient>
									<ellipse id="Oval_11_" class="st31" cx="115.2" cy="156.5" rx="14.5" ry="14.5"/>

										<linearGradient id="Shape_52_" gradientUnits="userSpaceOnUse" x1="-2370.2871" y1="189.1278" x2="-2370.2871" y2="188.192" gradientTransform="matrix(29.0047 0 0 19.368 68864.75 -3492.7048)">
										<stop  offset="0" style="stop-color:#F4905E"/>
										<stop  offset="1" style="stop-color:#D67546"/>
									</linearGradient>
									<path id="Shape_40_" class="st32" d="M116,164.6c-7.4,0-13.7-5.6-14.4-13c-1.9,5.4-0.5,11.5,3.7,15.4s10.4,5,15.7,2.7
										c5.3-2.3,8.7-7.5,8.8-13.3c0-0.5,0-1-0.1-1.5C127.6,160.8,122.1,164.6,116,164.6z"/>
								</g>
							</g>
						</g>
					</g>
					<g id="Combined-Shape">
					</g>
					<g>
						<g transform="translate(-0.373020, 2.010731)">
							<g id="Combined-Shape_1_">
								<path id="path-14_1_" class="st33" d="M92.6,0.5C39.9,11.8,0.4,58.6,0.4,114.6c0,28.2,10,54,26.6,74.2
									c21.4,25.9,53.8,42.4,90,42.4c38.6,0,72.9-18.8,94.1-47.7c14.1-19.3,22.5-43.1,22.5-68.9c0-56.3-39.9-103.3-93-114.2"/>
							</g>
						</g>
					</g>
				</g>
			</g>
			<g id="Group-93">
				<g id="Group-92">

						<linearGradient id="Combined-Shape_2_" gradientUnits="userSpaceOnUse" x1="-2071.2024" y1="128.365" x2="-2071.4333" y2="128.5971" gradientTransform="matrix(169.6848 0 0 165.3184 351548.9062 -21164.6562)">
						<stop  offset="0" style="stop-color:#33DABA"/>
						<stop  offset="1" style="stop-color:#17B384"/>
					</linearGradient>
					<path id="Combined-Shape_4_" class="st34" d="M179.5,9.8C85.2,12,12,84,9.8,175.1"/>

						<linearGradient id="Oval-6_3_" gradientUnits="userSpaceOnUse" x1="-2077.7144" y1="124.2644" x2="-2077.2312" y2="124.7594" gradientTransform="matrix(343.3981 0 0 342.9793 713565.5 -42505.4102)">
						<stop  offset="0" style="stop-color:#95BCE2"/>
						<stop  offset="1" style="stop-color:#5C87C1"/>
					</linearGradient>
					<path id="Oval-6_4_" class="st35" d="M351.3,179.3c0,94.7-76.9,171.5-171.7,171.5S7.9,274.1,7.9,179.3h3.9
						c0,92.5,75.1,167.6,167.8,167.6s167.8-75,167.8-167.6"/>

						<linearGradient id="Oval-6_5_" gradientUnits="userSpaceOnUse" x1="-2071.7336" y1="128.8616" x2="-2070.7646" y2="127.8936" gradientTransform="matrix(171.699 0 0 171.4896 355916.3125 -21736.2461)">
						<stop  offset="0" style="stop-color:#FF8B79"/>
						<stop  offset="1" style="stop-color:#F6686F"/>
					</linearGradient>
					<path id="Oval-6_1_" class="st36" d="M179.6,350.8v-3.9c92.7,0,167.8-75,167.8-167.6h3.9C351.3,274.1,274.4,350.8,179.6,350.8z
						"/>

						<linearGradient id="Oval-6_6_" gradientUnits="userSpaceOnUse" x1="-2071.0212" y1="128.4512" x2="-2071.5107" y2="127.9512" gradientTransform="matrix(171.699 0 0 171.4896 355916.3125 -21907.7305)">
						<stop  offset="0" style="stop-color:#FFDF95"/>
						<stop  offset="1" style="stop-color:#FFBC5C"/>
					</linearGradient>
					<path id="Oval-6_2_" class="st37" d="M351.3,179.3h-3.9c0-92.5-75.1-167.6-167.8-167.6V7.9C274.4,7.9,351.3,84.6,351.3,179.3z"
						/>
					<path id="Path-16" class="st38" d="M172.3,17.9c-0.5,0.6-0.5,1.5,0.1,2s1.5,0.5,2-0.1l8.8-9.5c0.6-0.6,0.5-1.6-0.2-2.1l-10-7.9
						c-0.6-0.5-1.5-0.4-2,0.2s-0.4,1.5,0.2,2l8.8,7L172.3,17.9z"/>
					<path id="Path-16-Copy" class="st39" d="M17.9,186.7c0.6,0.5,1.5,0.5,2-0.1s0.5-1.5-0.1-2l-9.5-8.8c-0.6-0.6-1.6-0.5-2.1,0.2
						l-7.9,10c-0.5,0.6-0.4,1.5,0.2,2s1.5,0.4,2-0.2l7-8.8L17.9,186.7z"/>
					<path id="Path-16-Copy_1_" class="st40" d="M357.4,171.8c0.6-0.5,1.5-0.5,2,0.1s0.5,1.5-0.1,2l-9.5,8.8
						c-0.6,0.6-1.6,0.5-2.1-0.2l-7.9-10c-0.5-0.6-0.4-1.5,0.2-2s1.5-0.4,2,0.2l7,8.8L357.4,171.8z"/>
					<ellipse id="Oval-7" class="st41" cx="53.4" cy="66.3" rx="28.4" ry="28.4"/>
					<path id="Shape-Copy-6" class="st23" d="M47.5,74.2V58.1c0-0.5,0.3-0.9,0.7-1.1s0.9-0.2,1.3,0l12.6,8.1
						c0.3,0.3,0.5,0.7,0.5,1.1s-0.2,0.8-0.5,1.1l-12.6,8c-0.4,0.2-0.9,0.3-1.3,0S47.6,74.7,47.5,74.2z"/>
					<ellipse id="Oval-7-Copy-2" class="st42" cx="54" cy="292.7" rx="28.4" ry="28.4"/>
					<path id="Combined-Shape_3_" class="st23" d="M62.2,280.4c0.7,0,1.3,0.6,1.3,1.4v21.9c0,0.8-0.6,1.4-1.3,1.4H44.9
						c-0.7,0-1.3-0.6-1.3-1.4v-21.9c0-0.8,0.6-1.4,1.3-1.4H62.2z M57.4,291.6h1.2V290H60v-1.1h-1.5v-1.6h-1.2v1.6h-1.5v1.1h1.5v1.6
						H57.4z M55.1,297.2h2.2l-4.1-10h-2.1l-4.1,10h2.2l0.9-2.2h4L55.1,297.2z M52.2,290.2l1.2,2.9H51L52.2,290.2z"/>
					<ellipse id="Oval-7-Copy-3" class="st7" cx="302.7" cy="292.3" rx="28.4" ry="28.4"/>
					<path id="Combined-Shape-Copy-7" class="st23" d="M298.2,302.2l-6.5,1.2l1.8-5.5c-0.4-0.6-0.8-1.3-1-2c-0.8-2.1-1-4.4-0.6-6.5
						c0.3-1.8,1-3.4,2.1-4.9c1.3-1.8,3-3.1,5-4c1.1-0.5,2.3-0.7,3.4-0.8c1.1-0.1,2.2,0,3.3,0.2c2.6,0.6,4.9,2.1,6.6,4.2
						c1.1,1.4,1.9,3.1,2.2,4.8c0.4,2.1,0.3,4.2-0.3,6.2c-0.8,2.3-2.2,4.3-4.1,5.8c-1.6,1.2-3.5,2-5.5,2.2
						C302.3,303.5,300.1,303.2,298.2,302.2L298.2,302.2z M302.5,284.8c-2,2-4,4.1-6,6.1c-0.3,0.3-0.3,0.9,0,1.2
						c0.4,0.4,0.8,0.8,1.2,1.2c0.3,0.3,0.9,0.3,1.2,0c0.8-0.9,1.7-1.7,2.5-2.6v0.1c0,2.2,0,4.3,0,6.5c0,0.1,0,0.2,0,0.3
						c0.1,0.4,0.4,0.7,0.8,0.7c0.6,0,1.1,0,1.7,0c0.3,0,0.7-0.2,0.8-0.6c0.1-0.2,0.1-0.4,0.1-0.6c0-2.2,0-4.4,0-6.6
						c0.8,0.8,1.6,1.6,2.4,2.5c0.1,0.1,0.2,0.2,0.3,0.2c0.3,0.2,0.6,0.2,0.9,0c0.1-0.1,0.2-0.2,0.3-0.3c0.3-0.3,0.6-0.6,0.9-0.9
						c0.1-0.1,0.2-0.2,0.3-0.3c0.2-0.3,0.1-0.8-0.1-1c-2-2-4-4.1-6-6.1C303.4,284.4,302.8,284.4,302.5,284.8
						C302.5,284.8,302.8,284.4,302.5,284.8z"/>
					<ellipse id="Oval-7-Copy-4" class="st43" cx="302.7" cy="66.5" rx="28.4" ry="28.4"/>
				</g>
				<path id="Path-16_1_" class="st44" d="M187.4,357.6c0.5,0.6,0.5,1.5-0.1,2.1s-1.5,0.5-2-0.1l-8.5-9.7c-0.5-0.6-0.5-1.6,0.2-2.1
					l9.8-8.1c0.6-0.5,1.5-0.4,2,0.2s0.4,1.5-0.2,2L180,349L187.4,357.6z"/>
			</g>
		</g>
	</g>
	<g id="Group-2" transform="translate(290.000000, 55.000000)">
		<polygon id="Path" class="st23" points="21.3,6.8 25.7,6.9 26,17.9 21.6,17.8 		"/>
		<path id="Path_1_" class="st23" d="M24.6,2.4l-1.9-0.1c-0.8,0-1.3,0.6-1.3,1.3l0.1,1.9l4.4,0.1l-0.1-2.2
			C25.7,2.9,25.2,2.4,24.6,2.4z"/>
		<path id="Path_2_" class="st23" d="M23.6,22.2c0.1,0.2,0.5,0.2,0.6,0l1.8-3l-4.4-0.1L23.6,22.2z"/>
		<path id="Shape_41_" class="st23" d="M17.7,2H1.2C0.9,2,0.6,2.3,0.6,2.6v19c0,0.3,0.2,0.6,0.6,0.6h16.6c0.3,0,0.6-0.3,0.6-0.6v-19
			C18.3,2.3,18,2,17.7,2z M7.1,17.8H4.7c-0.3,0-0.6-0.3-0.6-0.6c0-0.3,0.2-0.6,0.6-0.6h2.4c0.3,0,0.6,0.3,0.6,0.6
			C7.6,17.5,7.4,17.8,7.1,17.8z M7.1,12.7H4.7c-0.3,0-0.6-0.3-0.6-0.6s0.2-0.6,0.6-0.6h2.4c0.3,0,0.6,0.3,0.6,0.6
			C7.6,12.5,7.4,12.7,7.1,12.7z M7.1,7.7H4.7c-0.3,0-0.6-0.3-0.6-0.6c0-0.3,0.2-0.6,0.6-0.6h2.4c0.3,0,0.6,0.3,0.6,0.6
			C7.6,7.4,7.4,7.7,7.1,7.7z M14.6,16.4l-2.4,2.5c-0.1,0.1-0.2,0.2-0.4,0.2c-0.1,0-0.3-0.1-0.4-0.2l-1.2-1.3c-0.2-0.2-0.2-0.6,0-0.8
			c0.2-0.2,0.6-0.2,0.8,0l0.8,0.9l2-2.1c0.2-0.2,0.6-0.2,0.8,0C14.8,15.8,14.8,16.1,14.6,16.4z M14.6,11.3l-2.4,2.5
			C12.1,13.9,12,14,11.8,14c-0.1,0-0.3-0.1-0.4-0.2l-1.2-1.3c-0.2-0.2-0.2-0.6,0-0.8s0.6-0.2,0.8,0l0.8,0.9l2-2.1
			c0.2-0.2,0.6-0.2,0.8,0C14.8,10.7,14.8,11.1,14.6,11.3z M14.6,6.2l-2.4,2.5c-0.1,0.1-0.2,0.2-0.4,0.2c-0.1,0-0.3-0.1-0.4-0.2
			l-1.2-1.3c-0.2-0.2-0.2-0.6,0-0.8c0.2-0.2,0.6-0.2,0.8,0l0.8,0.9l2-2.1c0.2-0.2,0.6-0.2,0.8,0C14.8,5.6,14.8,6,14.6,6.2z"/>
	</g>
	<text transform="matrix(1 0 0 1 164 71)" class="st45 st46 st47">360</text>
	<text transform="matrix(1 0 0 1 193.3984 71)" class="st45 st46 st47"> </text>
</g>
<circle class="st48" cx="195.2" cy="60.2" r="1.8"/>
</svg>
