<svg width="80" height="80" viewBox="0 0 80 80" version="1.1" xmlns="http://www.w3.org/2000/svg" xmlns:xlink="http://www.w3.org/1999/xlink"><title>practise</title><desc>Created with Sketch.</desc><g id="Assets" stroke="none" stroke-width="1" fill="none" fill-rule="evenodd"><g id="Group-5" fill-rule="nonzero"><circle id="Oval" fill="#FFBC5C" cx="40" cy="40" r="40"/><polygon id="Path" fill="#FFF" transform="translate(54.447670, 41.321295) rotate(-45.000000) translate(-54.447670, -41.321295)" points="57.6736808 33.4254178 61.8887352 37.897356 51.2192686 49.2171717 47.006604 44.7452335"/><path d="M57.2899529,29.1127145 L55.4102008,27.1183836 C54.6837416,26.3476436 53.5041218,26.3476436 52.7751944,27.1183836 L50.9745799,29.0287532 L55.1896343,33.5007329 L57.2899529,31.272391 C57.8533966,30.6745614 57.8533966,29.7105025 57.2899529,29.1127145 Z" id="Path" fill="#FFF" transform="translate(54.343558, 30.020531) rotate(-45.000000) translate(-54.343558, -30.020531)"/><path d="M51.9975427,53.9422775 C51.9208341,54.3085484 52.2325264,54.6367457 52.5777933,54.5476719 L57.2747641,53.3394185 L53.0620995,48.8674804 L51.9975427,53.9422775 Z" id="Path" fill="#FFF" transform="translate(54.630289, 51.714956) rotate(-45.000000) translate(-54.630289, -51.714956)"/><path d="M46.0922277,26.8095238 L22.7773893,26.8095238 C22.3480631,26.8095238 22,27.1830513 22,27.6437872 L22,54.4514509 C22,54.9122424 22.3480631,55.2857143 22.7773893,55.2857143 L46.0921759,55.2857143 C46.5215021,55.2857143 46.8695652,54.9122424 46.8695652,54.4514509 L46.8695652,27.6437872 C46.869617,27.1830513 46.5215539,26.8095238 46.0922277,26.8095238 Z M31.1040581,49.0305742 L27.7734113,49.0305742 C27.3440851,49.0305742 26.996022,48.6571023 26.996022,48.1963108 C26.996022,47.7356306 27.3440851,47.3620474 27.7734113,47.3620474 L31.1040581,47.3620474 C31.5333843,47.3620474 31.8814474,47.7356306 31.8814474,48.1963108 C31.8814474,48.6571023 31.5334879,49.0305742 31.1040581,49.0305742 Z M31.1040581,41.8818824 L27.7734113,41.8818824 C27.3440851,41.8818824 26.996022,41.5084105 26.996022,41.047619 C26.996022,40.5869388 27.3440851,40.2133557 27.7734113,40.2133557 L31.1040581,40.2133557 C31.5333843,40.2133557 31.8814474,40.5869388 31.8814474,41.047619 C31.8814474,41.5084105 31.5334879,41.8818824 31.1040581,41.8818824 Z M31.1040581,34.7329682 L27.7734113,34.7329682 C27.3440851,34.7329682 26.996022,34.3594963 26.996022,33.8987048 C26.996022,33.4379689 27.3440851,33.0644414 27.7734113,33.0644414 L31.1040581,33.0644414 C31.5333843,33.0644414 31.8814474,33.4379689 31.8814474,33.8987048 C31.8814474,34.3594963 31.5334879,34.7329682 31.1040581,34.7329682 Z M41.6458718,46.9991429 L38.315225,50.5734609 C38.1634268,50.7363648 37.964467,50.8177889 37.765559,50.8177889 C37.5665991,50.8177889 37.3676393,50.7363648 37.2158411,50.5734609 L35.550414,48.7863019 C35.2468694,48.4605499 35.2468176,47.9322943 35.550414,47.6064866 C35.8539586,47.2806789 36.3462015,47.2806789 36.649798,47.606431 L37.7655071,48.8036546 L40.546436,45.8193276 C40.8499806,45.4935199 41.3422235,45.4935199 41.64582,45.8193276 C41.9494682,46.1450796 41.9494682,46.6732796 41.6458718,46.9991429 Z M41.6458718,39.8503398 L38.315225,43.4247692 C38.1694386,43.5812214 37.9717226,43.6690971 37.765559,43.6690971 C37.5593435,43.6690971 37.3616275,43.5812214 37.2158411,43.4247692 L35.550414,41.6373876 C35.2468176,41.3115244 35.2468694,40.78338 35.550414,40.4575167 C35.8540105,40.1317091 36.3462015,40.1317647 36.6498498,40.4575724 L37.7655071,41.6549628 L40.546436,38.6705802 C40.8499806,38.3447725 41.3422235,38.3447725 41.64582,38.6705246 C41.9494682,38.9963322 41.9494682,39.5245322 41.6458718,39.8503398 Z M41.6458718,32.7016481 L38.315225,36.2760218 C38.1694386,36.432474 37.9717226,36.5203497 37.765559,36.5203497 C37.5593435,36.5203497 37.3616275,36.432474 37.2158411,36.2760218 L35.550414,34.4886403 C35.2468176,34.1628882 35.2468694,33.6346326 35.550414,33.308825 C35.8540105,32.9830729 36.3462015,32.9830729 36.6498498,33.3088806 L37.7655071,34.506271 L40.546436,31.5218328 C40.8499806,31.1960807 41.3422235,31.1960807 41.64582,31.5218328 C41.9494682,31.8476404 41.9494682,32.3758404 41.6458718,32.7016481 Z" id="Shape" fill="#FFF"/></g></g></svg>